<svg width="33" height="33" viewBox="0 0 33 33" fill="none" xmlns="http://www.w3.org/2000/svg">
<path d="M16.5 33C25.6127 33 33 25.6127 33 16.5C33 7.3873 25.6127 0 16.5 0C7.3873 0 0 7.3873 0 16.5C0 25.6127 7.3873 33 16.5 33Z" fill="#26A17B"/>
<path fill-rule="evenodd" clip-rule="evenodd" d="M18.482 17.9273V17.9253C18.3686 17.9335 17.7839 17.9686 16.4793 17.9686C15.4378 17.9686 14.7045 17.9376 14.4467 17.9253V17.9284C10.4372 17.752 7.44454 17.0539 7.44454 16.2185C7.44454 15.3843 10.4372 14.6861 14.4467 14.5067V17.2333C14.7087 17.2519 15.4594 17.2962 16.4969 17.2962C17.7416 17.2962 18.3655 17.2446 18.482 17.2343V14.5087C22.4833 14.6871 25.4687 15.3853 25.4687 16.2185C25.4687 17.0539 22.4833 17.75 18.482 17.9273ZM18.482 14.2251V11.7852H24.0652V8.06445H8.86355V11.7852H14.4467V14.2241C9.90923 14.4324 6.49683 15.3317 6.49683 16.4083C6.49683 17.4849 9.90923 18.3831 14.4467 18.5925V26.4114H18.482V18.5904C23.0123 18.3821 26.4165 17.4839 26.4165 16.4083C26.4165 15.3327 23.0123 14.4345 18.482 14.2251Z" fill="white"/>
</svg>
