<svg width="33" height="33" viewBox="0 0 33 33" fill="none" xmlns="http://www.w3.org/2000/svg">
<path d="M33 16.5C33 7.3873 25.6127 0 16.5 0C7.3873 0 0 7.3873 0 16.5C0 25.6127 7.3873 33 16.5 33C25.6127 33 33 25.6127 33 16.5Z" fill="black"/>
<path d="M12.8862 9.25685C12.5228 8.77114 11.8754 8.56654 11.2836 8.7503C10.6918 8.93415 10.2907 9.46441 10.2907 10.0629V12.8215H6.94727V15.5799H10.2907V17.419H6.94727V20.1774H10.2907V24.3152H13.1565V14.3377L20.1136 23.6348C20.477 24.1205 21.1244 24.3251 21.7162 24.1412C22.308 23.9575 22.7091 23.4272 22.7091 22.8286V20.1774H26.0525V17.419H22.7091V15.5799H26.0525V12.8215H22.7091V8.6837H19.8433V18.5539L12.8862 9.25685Z" fill="white"/>
</svg>
