<svg width="33" height="33" viewBox="0 0 33 33" fill="none" xmlns="http://www.w3.org/2000/svg">
<path d="M16.5 0C25.6135 0 33 7.38795 33 16.5C33 25.6135 25.6135 33 16.5 33C7.38795 33 0 25.6128 0 16.5C0 7.38795 7.38795 0 16.5 0Z" fill="#F5AC37"/>
<path d="M17.1029 17.6659H23.3726C23.5063 17.6659 23.5694 17.6659 23.579 17.4906C23.6303 16.8528 23.6303 16.2113 23.579 15.5727C23.579 15.4487 23.5174 15.3975 23.383 15.3975H10.9052C10.7507 15.3975 10.7092 15.4487 10.7092 15.5935V17.429C10.7092 17.6659 10.7092 17.6659 10.9564 17.6659H17.1029V17.6659ZM22.8789 13.2524C22.8967 13.2056 22.8967 13.1544 22.8789 13.1084C22.7742 12.8804 22.6502 12.6628 22.5061 12.4587C22.2893 12.1097 22.0339 11.7882 21.7428 11.4993C21.6055 11.3248 21.4466 11.1682 21.2684 11.0353C20.3759 10.2757 19.3148 9.73811 18.1743 9.46784C17.5989 9.33864 17.0108 9.27701 16.4213 9.28221H10.8837C10.7292 9.28221 10.7084 9.34384 10.7084 9.47823V13.1388C10.7084 13.2932 10.7084 13.3348 10.9044 13.3348H22.8046C22.8046 13.3348 22.9078 13.314 22.9286 13.2524H22.8781H22.8789ZM22.8789 19.811C22.7036 19.7917 22.5269 19.7917 22.3517 19.811H10.9156C10.7611 19.811 10.7092 19.811 10.7092 20.0174V23.5963C10.7092 23.7611 10.7092 23.8027 10.9156 23.8027H16.1955C16.448 23.822 16.7005 23.8042 16.9477 23.7515C17.714 23.6965 18.4676 23.5302 19.1864 23.2562C19.4477 23.1656 19.7002 23.0476 19.9385 22.9057H20.0106C21.2483 22.262 22.2537 21.2507 22.8878 20.0092C22.8878 20.0092 22.9598 19.8533 22.8789 19.8125V19.811ZM8.63682 25.6582V25.5966V23.1938V22.3793V19.9558C8.63682 19.8214 8.63682 19.8013 8.47199 19.8013H6.23407C6.11007 19.8013 6.05884 19.8013 6.05884 19.6365V17.677H8.4512C8.58485 17.677 8.63682 17.677 8.63682 17.5018V15.5631C8.63682 15.4391 8.63682 15.4086 8.47199 15.4086H6.23407C6.11007 15.4086 6.05884 15.4086 6.05884 15.2438V13.4291C6.05884 13.3155 6.05884 13.2851 6.22367 13.2851H8.4408C8.59524 13.2851 8.63682 13.2851 8.63682 13.089V7.53064C8.63682 7.3658 8.63682 7.32422 8.84324 7.32422H16.5772C17.1385 7.34649 17.6962 7.40812 18.2478 7.50985C19.3846 7.71998 20.4768 8.12613 21.4755 8.70603C22.1378 9.09584 22.7474 9.56659 23.2902 10.1086C23.6986 10.5326 24.0669 10.9915 24.3936 11.48C24.7181 11.9753 24.9876 12.5047 25.1992 13.0579C25.2252 13.2019 25.3633 13.2992 25.5073 13.2747H27.3532C27.5901 13.2747 27.5901 13.2747 27.6005 13.5019V15.1933C27.6005 15.3581 27.5388 15.3997 27.3733 15.3997H25.9499C25.8058 15.3997 25.7642 15.3997 25.7746 15.5854C25.8311 16.2135 25.8311 16.8439 25.7746 17.4721C25.7746 17.6473 25.7746 17.6681 25.9714 17.6681H27.5997C27.6717 17.7609 27.5997 17.8537 27.5997 17.9473C27.6101 18.0668 27.6101 18.1878 27.5997 18.3074V19.5555C27.5997 19.7308 27.5485 19.7828 27.3933 19.7828H25.4442C25.3083 19.7568 25.1762 19.8436 25.145 19.9788C24.6809 21.1853 23.9384 22.2672 22.9791 23.1344C22.6286 23.45 22.2604 23.747 21.8757 24.021C21.4629 24.2586 21.0612 24.5058 20.638 24.7019C19.8591 25.0523 19.0423 25.3107 18.204 25.4748C17.4081 25.6174 16.601 25.682 15.7909 25.6708H8.63385V25.6604L8.63682 25.6582Z" fill="#FEFEFD"/>
</svg>
