<svg width="33" height="33" viewBox="0 0 33 33" fill="none" xmlns="http://www.w3.org/2000/svg">
<g clip-path="url(#clip0_1786_1547)">
<path d="M16.4998 33C19.7632 33 22.9533 32.0323 25.6667 30.2193C28.3801 28.4062 30.495 25.8293 31.7438 22.8143C32.9927 19.7993 33.3194 16.4817 32.6828 13.281C32.0461 10.0803 30.4746 7.14031 28.1671 4.83275C25.8595 2.52518 22.9195 0.953706 19.7188 0.31705C16.5181 -0.319606 13.2005 0.00714912 10.1855 1.256C7.17055 2.50484 4.5936 4.61969 2.78056 7.3331C0.967514 10.0465 -0.000194186 13.2366 -0.000194186 16.5C-0.00553609 18.6683 0.417603 20.8163 1.24491 22.8206C2.07222 24.8249 3.2874 26.646 4.82063 28.1792C6.35386 29.7124 8.17493 30.9276 10.1792 31.7549C12.1835 32.5822 14.3315 33.0054 16.4998 33V33Z" fill="#2775CA"/>
<path d="M21.0375 19.1138C21.0375 16.7138 19.5945 15.8813 16.707 15.5378C14.643 15.2633 14.232 14.7128 14.232 13.7513C14.232 12.7898 14.919 12.1688 16.293 12.1688C17.532 12.1688 18.219 12.5813 18.5625 13.6133C18.5994 13.7127 18.6659 13.7984 18.7531 13.8588C18.8403 13.9192 18.9439 13.9513 19.05 13.9508H20.1495C20.2132 13.9525 20.2765 13.9411 20.3357 13.9175C20.3948 13.8939 20.4486 13.8585 20.4936 13.8135C20.5387 13.7684 20.5741 13.7147 20.5977 13.6555C20.6213 13.5963 20.6326 13.533 20.631 13.4693V13.4018C20.4981 12.6567 20.1229 11.9763 19.5636 11.4663C19.0043 10.9564 18.2922 10.6454 17.538 10.5818V8.93181C17.538 8.65731 17.331 8.45181 16.9875 8.38281H15.9555C15.681 8.38281 15.4755 8.58831 15.4065 8.93181V10.5188C13.338 10.8008 12.0315 12.1688 12.0315 13.8878C12.0315 16.1573 13.407 17.0513 16.2945 17.3948C18.219 17.7383 18.8445 18.1448 18.8445 19.2503C18.8445 20.3558 17.883 21.1073 16.5765 21.1073C14.7885 21.1073 14.1765 20.3573 13.9635 19.3193C13.9438 19.2034 13.8841 19.098 13.7948 19.0215C13.7054 18.945 13.5921 18.9023 13.4745 18.9008H12.3C12.2364 18.8994 12.1731 18.9108 12.114 18.9345C12.055 18.9582 12.0013 18.9936 11.9563 19.0386C11.9113 19.0836 11.8759 19.1373 11.8522 19.1964C11.8285 19.2554 11.817 19.3187 11.8185 19.3823V19.4513C12.0945 21.1703 13.194 22.4078 15.4635 22.7513V24.4013C15.4635 24.6758 15.669 24.8828 16.0125 24.9518H17.0445C17.319 24.9518 17.526 24.7448 17.5935 24.4013V22.7513C19.656 22.4078 21.0315 20.9633 21.0315 19.1078L21.0375 19.1138Z" fill="white"/>
<path d="M12.9929 26.3318C11.0147 25.6062 9.30701 24.2908 8.1006 22.5633C6.8942 20.8358 6.24728 18.7796 6.24728 16.6725C6.24728 14.5655 6.8942 12.5092 8.1006 10.7818C9.30701 9.05428 11.0147 7.73884 12.9929 7.01327C13.1249 6.95619 13.2357 6.85928 13.31 6.73611C13.3842 6.61294 13.4181 6.46965 13.4069 6.32627V5.36327C13.4161 5.23696 13.3793 5.11157 13.3032 5.01034C13.227 4.90912 13.1168 4.83893 12.9929 4.81277C12.8961 4.80268 12.7989 4.82712 12.7184 4.88177C10.2155 5.6773 8.0307 7.24865 6.48021 9.36838C4.92972 11.4881 4.09399 14.0463 4.09399 16.6725C4.09399 19.2988 4.92972 21.8569 6.48021 23.9767C8.0307 26.0964 10.2155 27.6677 12.7184 28.4633C12.7755 28.4965 12.8398 28.5157 12.9058 28.5193C12.9718 28.5229 13.0377 28.5108 13.0981 28.484C13.1586 28.4572 13.2118 28.4165 13.2535 28.3652C13.2952 28.3139 13.3241 28.2534 13.3379 28.1888C13.4069 28.1198 13.4069 28.0508 13.4069 27.9128V26.9513C13.4069 26.7443 13.1999 26.4698 12.9929 26.3318ZM20.2814 4.88177C20.2241 4.84857 20.1598 4.82942 20.0937 4.8259C20.0276 4.82238 19.9616 4.83459 19.9011 4.86153C19.8407 4.88847 19.7875 4.92937 19.7459 4.98086C19.7043 5.03236 19.6755 5.09299 19.6619 5.15777C19.5944 5.22527 19.5944 5.29427 19.5944 5.43227V6.39377C19.606 6.53242 19.6492 6.66658 19.7207 6.78593C19.7922 6.90528 19.8901 7.00666 20.0069 7.08227C21.9851 7.80784 23.6928 9.12328 24.8992 10.8508C26.1056 12.5782 26.7525 14.6345 26.7525 16.7415C26.7525 18.8486 26.1056 20.9048 24.8992 22.6323C23.6928 24.3598 21.9851 25.6752 20.0069 26.4008C19.875 26.4579 19.7644 26.5549 19.6904 26.6781C19.6164 26.8013 19.5828 26.9445 19.5944 27.0878V28.0508C19.5851 28.1769 19.6217 28.3021 19.6975 28.4033C19.7733 28.5045 19.8832 28.5748 20.0069 28.6013C20.1037 28.6114 20.2009 28.5869 20.2814 28.5323C22.7833 27.7257 24.9649 26.1465 26.5125 24.0216C28.0601 21.8967 28.8938 19.3357 28.8938 16.707C28.8938 14.0783 28.0601 11.5173 26.5125 9.39247C24.9649 7.26759 22.7833 5.6883 20.2814 4.88177V4.88177Z" fill="white"/>
</g>
<defs>
<clipPath id="clip0_1786_1547">
<rect width="33" height="33" fill="white"/>
</clipPath>
</defs>
</svg>
