<svg width="35" height="35" viewBox="0 0 35 35" fill="none" xmlns="http://www.w3.org/2000/svg">
<path d="M33.0182 18.4276C33.0182 27.522 25.6446 34.8956 16.5463 34.8969C7.45451 34.8969 0.0809584 27.522 0.0822761 18.4263C0.0796408 9.33059 7.45319 1.95703 16.5489 1.95703C25.6446 1.95703 33.0182 9.3319 33.0182 18.4276Z" fill="#EAB300"/>
<path d="M23.0295 14.3925C22.8174 12.1867 20.9134 11.4475 18.5074 11.2367V8.17578H16.6455V11.155C16.1567 11.155 15.656 11.1642 15.1592 11.1748V8.17578H13.2974L13.2961 11.234C12.8929 11.242 12.4963 11.2499 12.1102 11.2499V11.2406L9.54209 11.2393V13.229C9.54209 13.229 10.9177 13.2026 10.894 13.2277C11.649 13.2277 11.8941 13.6651 11.9652 14.0433V17.5298C12.0179 17.5298 12.0851 17.5324 12.1616 17.543H11.9652L11.9639 22.4275C11.931 22.6647 11.7913 23.0428 11.2643 23.0442C11.288 23.0652 9.91103 23.0442 9.91103 23.0442L9.54077 25.2684H11.9652C12.4159 25.2684 12.8599 25.2763 13.2947 25.2789L13.2961 28.3741H15.1566V25.3118C15.6665 25.3224 16.1606 25.3263 16.6442 25.3263L16.6429 28.3741H18.5047V25.2855C21.6355 25.1063 23.8293 24.317 24.1008 21.376C24.3208 19.0082 23.2074 17.9501 21.4299 17.5232C22.5117 16.9751 23.1876 16.0066 23.0295 14.3925ZM20.4232 21.0097C20.4232 23.3222 16.4637 23.06 15.2001 23.06V18.9581C16.4637 18.9608 20.4232 18.5984 20.4232 21.0097ZM19.5562 15.2239C19.5562 17.3282 16.2515 17.0818 15.2001 17.0831V13.3647C16.2529 13.3647 19.5575 13.03 19.5562 15.2239Z" fill="white"/>
<path d="M11.9695 17.4473H12.2462V17.6515H11.9695V17.4473Z" fill="white"/>
</svg>
